<svg id="Camada_1" data-name="Camada 1" xmlns="http://www.w3.org/2000/svg" viewBox="0 0 595.28 841.89"><defs><style>.cls-1,.cls-2{fill:#3864a7;}.cls-2{font-size:48px;font-family:MyriadPro-Regular, Myriad Pro;}.cls-3{letter-spacing:-0.03em;}</style></defs><path class="cls-1" d="M121.2,419.6A36.3,36.3,0,0,1,175.35,388a36.3,36.3,0,1,0-42,58.66A36.22,36.22,0,0,1,121.2,419.6Z"/><path class="cls-1" d="M164.43,386A38.57,38.57,0,1,0,203,424.57,38.57,38.57,0,0,0,164.43,386ZM168.29,461a34,34,0,1,1,34-34A34,34,0,0,1,168.29,461Z"/><text class="cls-2" transform="translate(221.27 435.03)">Health<tspan class="cls-3" x="132.33" y="0">F</tspan><tspan x="154.46" y="0">inder</tspan></text></svg>